<svg version="1.1" xmlns="http://www.w3.org/2000/svg" xmlns:xlink="http://www.w3.org/1999/xlink" width="866" height="1570"><defs/><g><g/><g/><g/><g/><g/><g/><g/><g/><g/><g/><g/><g/><g/><g/><g/><g/><g/><g/><g/><g/><g/><g/><g/><g/><g/><g/><g/><g/><g/><g/><g/><g/><g/><g/><g/><g/><g/><g/><g><rect fill="white" stroke="none" x="0" y="0" width="866" height="1570"/></g><g><text fill="black" stroke="none" font-family="sans-serif" font-size="15pt" font-style="normal" font-weight="normal" text-decoration="normal" x="382.5766399557344" y="22.6179738" text-anchor="start" dominant-baseline="alphabetic" xml:space="preserve">Margin Call</text></g><g/><g><path fill="none" stroke="black" paint-order="fill stroke markers" d=" M 74.26783067389454 88.511670804 L 74.26783067389454 1570.7428871640004" stroke-miterlimit="10" stroke-width="1.2565541" stroke-dasharray="11.598960923076923,5.0262164"/><path fill="none" stroke="black" paint-order="fill stroke markers" d=" M 230.58797688496486 88.511670804 L 230.58797688496486 1570.7428871640004" stroke-miterlimit="10" stroke-width="1.2565541" stroke-dasharray="11.598960923076923,5.0262164"/><path fill="none" stroke="black" paint-order="fill stroke markers" d=" M 418.40408714632815 88.511670804 L 418.40408714632815 1570.7428871640004" stroke-miterlimit="10" stroke-width="1.2565541" stroke-dasharray="11.598960923076923,5.0262164"/><path fill="none" stroke="black" paint-order="fill stroke markers" d=" M 612.7416564810937 88.511670804 L 612.7416564810937 1570.7428871640004" stroke-miterlimit="10" stroke-width="1.2565541" stroke-dasharray="11.598960923076923,5.0262164"/><path fill="none" stroke="black" paint-order="fill stroke markers" d=" M 773.8815582463633 88.511670804 L 773.8815582463633 1570.7428871640004" stroke-miterlimit="10" stroke-width="1.2565541" stroke-dasharray="11.598960923076923,5.0262164"/></g><g><path fill="none" stroke="none"/><g><path fill="white" stroke="black" paint-order="fill stroke markers" d=" M 7.5393246000000005 47.950104456000005 L 140.9963367477891 47.950104456000005 L 140.9963367477891 88.511670804 L 7.5393246000000005 88.511670804 L 7.5393246000000005 47.950104456000005 Z" stroke-miterlimit="10" stroke-width="2.4125838720000004" stroke-dasharray=""/></g><g><text fill="black" stroke="none" font-family="sans-serif" font-size="10pt" font-style="normal" font-weight="normal" text-decoration="normal" x="23.899658982000005" y="73.433021604" text-anchor="start" dominant-baseline="alphabetic" xml:space="preserve">Market (contract)</text></g><path fill="none" stroke="none"/><g><path fill="white" stroke="black" paint-order="fill stroke markers" d=" M 156.07498594778906 47.950104456000005 L 305.10096782214066 47.950104456000005 L 305.10096782214066 88.511670804 L 156.07498594778906 88.511670804 L 156.07498594778906 47.950104456000005 Z" stroke-miterlimit="10" stroke-width="2.4125838720000004" stroke-dasharray=""/></g><g><text fill="black" stroke="none" font-family="sans-serif" font-size="10pt" font-style="normal" font-weight="normal" text-decoration="normal" x="172.43532032978908" y="73.433021604" text-anchor="start" dominant-baseline="alphabetic" xml:space="preserve">Collateral (contract)</text></g><path fill="none" stroke="none"/><g><path fill="white" stroke="black" paint-order="fill stroke markers" d=" M 320.17961702214063 47.950104456000005 L 516.6285572705157 47.950104456000005 L 516.6285572705157 88.511670804 L 320.17961702214063 88.511670804 L 320.17961702214063 47.950104456000005 Z" stroke-miterlimit="10" stroke-width="2.4125838720000004" stroke-dasharray=""/></g><g><text fill="black" stroke="none" font-family="sans-serif" font-size="10pt" font-style="normal" font-weight="normal" text-decoration="normal" x="336.53995140414065" y="73.433021604" text-anchor="start" dominant-baseline="alphabetic" xml:space="preserve">Scheduler (server, browser)</text></g><path fill="none" stroke="none"/><g><path fill="white" stroke="black" paint-order="fill stroke markers" d=" M 551.5553791059297 47.950104456000005 L 673.9279338562578 47.950104456000005 L 673.9279338562578 88.511670804 L 551.5553791059297 88.511670804 L 551.5553791059297 47.950104456000005 Z" stroke-miterlimit="10" stroke-width="2.4125838720000004" stroke-dasharray=""/></g><g><text fill="black" stroke="none" font-family="sans-serif" font-size="10pt" font-style="normal" font-weight="normal" text-decoration="normal" x="567.9157134879297" y="73.433021604" text-anchor="start" dominant-baseline="alphabetic" xml:space="preserve">Loan (contract)</text></g><path fill="none" stroke="none"/><g><path fill="white" stroke="black" paint-order="fill stroke markers" d=" M 689.0065830562578 47.950104456000005 L 858.7565334364688 47.950104456000005 L 858.7565334364688 88.511670804 L 689.0065830562578 88.511670804 L 689.0065830562578 47.950104456000005 Z" stroke-miterlimit="10" stroke-width="2.4125838720000004" stroke-dasharray=""/></g><g><text fill="black" stroke="none" font-family="sans-serif" font-size="10pt" font-style="normal" font-weight="normal" text-decoration="normal" x="705.3669174382578" y="73.433021604" text-anchor="start" dominant-baseline="alphabetic" xml:space="preserve">Market Taker (browser)</text></g></g><g><path fill="white" stroke="black" paint-order="fill stroke markers" d=" M 60.69704639389454 118.668969204 L 773.8815582463633 118.668969204 L 787.4523425263633 132.239753484 L 787.4523425263633 153.34986236400002 L 60.69704639389454 153.34986236400002 L 60.69704639389454 118.668969204 M 773.8815582463633 118.668969204 L 773.8815582463633 132.239753484 L 787.4523425263633 132.239753484" stroke-miterlimit="10" stroke-width="1.2565541" stroke-dasharray=""/><g><text fill="black" stroke="none" font-family="sans-serif" font-size="10pt" font-style="normal" font-weight="normal" text-decoration="normal" x="355.9147747213594" y="139.77907808400002" text-anchor="start" dominant-baseline="alphabetic" xml:space="preserve">Margin Call Operations</text></g><path fill="white" stroke="black" paint-order="fill stroke markers" d=" M 559.0485703061719 175.967836164 L 652.8639583760156 175.967836164 L 666.4347426560156 189.538620444 L 666.4347426560156 210.64872932400002 L 559.0485703061719 210.64872932400002 L 559.0485703061719 175.967836164 M 652.8639583760156 175.967836164 L 652.8639583760156 189.538620444 L 666.4347426560156 189.538620444" stroke-miterlimit="10" stroke-width="1.2565541" stroke-dasharray=""/><g><text fill="black" stroke="none" font-family="sans-serif" font-size="10pt" font-style="normal" font-weight="normal" text-decoration="normal" x="580.1586791861719" y="197.07794504400002" text-anchor="start" dominant-baseline="alphabetic" xml:space="preserve">WORKING</text></g><path fill="white" stroke="black" paint-order="fill stroke markers" d=" M 187.25689022176175 233.26670312400003 L 260.34827926816797 233.26670312400003 L 273.91906354816797 246.83748740400003 L 273.91906354816797 267.94759628400004 L 187.25689022176175 267.94759628400004 L 187.25689022176175 233.26670312400003 M 260.34827926816797 233.26670312400003 L 260.34827926816797 246.83748740400003 L 273.91906354816797 246.83748740400003" stroke-miterlimit="10" stroke-width="1.2565541" stroke-dasharray=""/><g><text fill="black" stroke="none" font-family="sans-serif" font-size="10pt" font-style="normal" font-weight="normal" text-decoration="normal" x="208.36699910176173" y="254.37681200400004" text-anchor="start" dominant-baseline="alphabetic" xml:space="preserve">IN USE</text></g><g><g><rect fill="white" stroke="none" x="436.24715536632806" y="290.56557008400006" width="158.65143289476563" height="19.602243960000003"/></g><text fill="black" stroke="none" font-family="sans-serif" font-size="10pt" font-style="normal" font-weight="normal" text-decoration="normal" x="438.5089527463281" y="304.1363543640001" text-anchor="start" dominant-baseline="alphabetic" xml:space="preserve">Call update all PV method</text></g><g><path fill="none" stroke="black" paint-order="fill stroke markers" d=" M 418.40408714632815 310.16781404400007 L 610.2285482810937 310.16781404400007" stroke-miterlimit="10" stroke-width="1.2565541" stroke-dasharray=""/><g transform="translate(612.7416564810937,310.16781404400007) translate(-612.7416564810937,-310.16781404400007)"><path fill="black" stroke="none" paint-order="stroke fill markers" d=" M 600.1761154810937 303.88504354400004 L 612.7416564810937 310.16781404400007 L 600.1761154810937 316.4505845440001 Z"/></g></g><g><g><rect fill="white" stroke="none" x="293.20492129515037" y="332.7857878440001" width="100.5996445646875" height="19.602243960000003"/></g><text fill="black" stroke="none" font-family="sans-serif" font-size="10pt" font-style="normal" font-weight="normal" text-decoration="normal" x="295.4667186751504" y="346.3565721240001" text-anchor="start" dominant-baseline="alphabetic" xml:space="preserve">View yield curve</text></g><g><path fill="none" stroke="black" paint-order="fill stroke markers" d=" M 612.7416564810937 352.3880318040001 L 76.78093887389454 352.3880318040001" stroke-miterlimit="10" stroke-width="1.2565541" stroke-dasharray="6.03145968"/><g transform="translate(74.26783067389454,352.3880318040001) translate(-74.26783067389454,-352.3880318040001)"><path fill="black" stroke="none" paint-order="stroke fill markers" d=" M 86.83337167389453 346.10526130400007 L 74.26783067389454 352.3880318040001 L 86.83337167389453 358.6708023040001 Z"/></g></g><g><g><rect fill="white" stroke="none" x="630.5847247010938" y="375.00600560400005" width="103.06648721605468" height="19.602243960000003"/></g><text fill="black" stroke="none" font-family="sans-serif" font-size="10pt" font-style="normal" font-weight="normal" text-decoration="normal" x="632.8465220810938" y="388.57678988400005" text-anchor="start" dominant-baseline="alphabetic" xml:space="preserve">Calc PV of loans</text></g><g><path fill="none" stroke="black" paint-order="fill stroke markers" d=" M 612.7416564810937 394.60824956400006 L 673.0562532810937 394.60824956400006 L 673.0562532810937 414.21049352400007 L 615.2547646810938 414.21049352400007" stroke-miterlimit="10" stroke-width="1.2565541" stroke-dasharray=""/><g transform="translate(612.7416564810937,414.21049352400007) translate(-612.7416564810937,-414.21049352400007)"><path fill="black" stroke="none" paint-order="stroke fill markers" d=" M 625.3071974810938 407.92772302400004 L 612.7416564810937 414.21049352400007 L 625.3071974810938 420.4932640240001 Z"/></g></g><g><g><rect fill="white" stroke="none" x="339.5598415076191" y="436.8284673240001" width="164.20995035082032" height="19.602243960000003"/></g><g><rect fill="white" stroke="none" x="339.5598415076191" y="451.9071165240001" width="132.58383645921876" height="19.602243960000003"/></g><text fill="black" stroke="none" font-family="sans-serif" font-size="10pt" font-style="normal" font-weight="normal" text-decoration="normal" x="341.82163888761914" y="450.39925160400014" text-anchor="start" dominant-baseline="alphabetic" xml:space="preserve">Update coverage (&lt; 150%)</text><text fill="black" stroke="none" font-family="sans-serif" font-size="10pt" font-style="normal" font-weight="normal" text-decoration="normal" x="341.82163888761914" y="465.4779008040001" text-anchor="start" dominant-baseline="alphabetic" xml:space="preserve">state 'MARGIN CALL'</text></g><g><path fill="none" stroke="black" paint-order="fill stroke markers" d=" M 612.7416564810937 471.50936048400007 L 233.10108508496486 471.50936048400007" stroke-miterlimit="10" stroke-width="1.2565541" stroke-dasharray=""/><g transform="translate(230.58797688496486,471.50936048400007) translate(-230.58797688496486,-471.50936048400007)"><path fill="black" stroke="none" paint-order="stroke fill markers" d=" M 243.15351788496486 465.22658998400004 L 230.58797688496486 471.50936048400007 L 243.15351788496486 477.7921309840001 Z"/></g></g><path fill="white" stroke="black" paint-order="fill stroke markers" d=" M 166.1456460201016 494.1273342840001 L 281.4595234698281 494.1273342840001 L 295.0303077498281 507.6981185640001 L 295.0303077498281 528.8082274440001 L 166.1456460201016 528.8082274440001 L 166.1456460201016 494.1273342840001 M 281.4595234698281 494.1273342840001 L 281.4595234698281 507.6981185640001 L 295.0303077498281 507.6981185640001" stroke-miterlimit="10" stroke-width="1.2565541" stroke-dasharray=""/><g><text fill="black" stroke="none" font-family="sans-serif" font-size="10pt" font-style="normal" font-weight="normal" text-decoration="normal" x="187.25575490010158" y="515.2374431640001" text-anchor="start" dominant-baseline="alphabetic" xml:space="preserve">MARGINCALL</text></g><g><g><rect fill="white" stroke="none" x="452.244080720332" y="551.4262012440001" width="88.975010775625" height="19.602243960000003"/></g><g><rect fill="white" stroke="none" x="452.244080720332" y="566.5048504440001" width="99.98137369066406" height="19.602243960000003"/></g><text fill="black" stroke="none" font-family="sans-serif" font-size="10pt" font-style="normal" font-weight="normal" text-decoration="normal" x="454.50587810033204" y="564.9969855240001" text-anchor="start" dominant-baseline="alphabetic" xml:space="preserve">Emit message</text><text fill="black" stroke="none" font-family="sans-serif" font-size="10pt" font-style="normal" font-weight="normal" text-decoration="normal" x="454.50587810033204" y="580.0756347240001" text-anchor="start" dominant-baseline="alphabetic" xml:space="preserve">'MARGIN CALL'</text></g><g><path fill="none" stroke="black" paint-order="fill stroke markers" d=" M 230.58797688496486 586.1070944040001 L 771.3684500463633 586.1070944040001" stroke-miterlimit="10" stroke-width="1.2565541" stroke-dasharray="6.03145968"/><g transform="translate(773.8815582463633,586.1070944040001) translate(-773.8815582463633,-586.1070944040001)"><path fill="black" stroke="none" paint-order="stroke fill markers" d=" M 761.3160172463632 579.8243239040002 L 773.8815582463633 586.1070944040001 L 761.3160172463632 592.3898649040001 Z"/></g></g><path fill="white" stroke="black" paint-order="fill stroke markers" d=" M 60.69704639389454 608.7250682040002 L 773.8815582463633 608.7250682040002 L 787.4523425263633 622.2958524840002 L 787.4523425263633 643.4059613640002 L 60.69704639389454 643.4059613640002 L 60.69704639389454 608.7250682040002 M 773.8815582463633 608.7250682040002 L 773.8815582463633 622.2958524840002 L 787.4523425263633 622.2958524840002" stroke-miterlimit="10" stroke-width="1.2565541" stroke-dasharray=""/><g><text fill="black" stroke="none" font-family="sans-serif" font-size="10pt" font-style="normal" font-weight="normal" text-decoration="normal" x="394.4337185079805" y="629.8351770840002" text-anchor="start" dominant-baseline="alphabetic" xml:space="preserve">Safe case</text></g><g><g><rect fill="white" stroke="none" x="452.1822826246289" y="666.0239351640002" width="80.8390244475" height="19.602243960000003"/></g><g><rect fill="white" stroke="none" x="452.1822826246289" y="681.1025843640002" width="100.10496988207031" height="19.602243960000003"/></g><text fill="black" stroke="none" font-family="sans-serif" font-size="10pt" font-style="normal" font-weight="normal" text-decoration="normal" x="454.4440800046289" y="679.5947194440002" text-anchor="start" dominant-baseline="alphabetic" xml:space="preserve">Send ETH to</text><text fill="black" stroke="none" font-family="sans-serif" font-size="10pt" font-style="normal" font-weight="normal" text-decoration="normal" x="454.4440800046289" y="694.6733686440002" text-anchor="start" dominant-baseline="alphabetic" xml:space="preserve">upsize colalteral</text></g><g><path fill="none" stroke="black" paint-order="fill stroke markers" d=" M 773.8815582463633 700.7048283240002 L 233.10108508496486 700.7048283240002" stroke-miterlimit="10" stroke-width="1.2565541" stroke-dasharray=""/><g transform="translate(230.58797688496486,700.7048283240002) translate(-230.58797688496486,-700.7048283240002)"><path fill="black" stroke="none" paint-order="stroke fill markers" d=" M 243.15351788496486 694.4220578240003 L 230.58797688496486 700.7048283240002 L 243.15351788496486 706.9875988240002 Z"/></g></g><g><g><rect fill="white" stroke="none" x="336.04185139531444" y="723.3228021240002" width="171.2459305754297" height="19.602243960000003"/></g><text fill="black" stroke="none" font-family="sans-serif" font-size="10pt" font-style="normal" font-weight="normal" text-decoration="normal" x="338.30364877531446" y="736.8935864040002" text-anchor="start" dominant-baseline="alphabetic" xml:space="preserve">Call update user PV method</text></g><g><path fill="none" stroke="black" paint-order="fill stroke markers" d=" M 230.58797688496486 742.9250460840002 L 610.2285482810937 742.9250460840002" stroke-miterlimit="10" stroke-width="1.2565541" stroke-dasharray=""/><g transform="translate(612.7416564810937,742.9250460840002) translate(-612.7416564810937,-742.9250460840002)"><path fill="black" stroke="none" paint-order="stroke fill markers" d=" M 600.1761154810937 736.6422755840002 L 612.7416564810937 742.9250460840002 L 600.1761154810937 749.2078165840002 Z"/></g></g><g><g><rect fill="white" stroke="none" x="293.20492129515037" y="765.5430198840002" width="100.5996445646875" height="19.602243960000003"/></g><text fill="black" stroke="none" font-family="sans-serif" font-size="10pt" font-style="normal" font-weight="normal" text-decoration="normal" x="295.4667186751504" y="779.1138041640002" text-anchor="start" dominant-baseline="alphabetic" xml:space="preserve">View yield curve</text></g><g><path fill="none" stroke="black" paint-order="fill stroke markers" d=" M 612.7416564810937 785.1452638440002 L 76.78093887389454 785.1452638440002" stroke-miterlimit="10" stroke-width="1.2565541" stroke-dasharray="6.03145968"/><g transform="translate(74.26783067389454,785.1452638440002) translate(-74.26783067389454,-785.1452638440002)"><path fill="black" stroke="none" paint-order="stroke fill markers" d=" M 86.83337167389453 778.8624933440002 L 74.26783067389454 785.1452638440002 L 86.83337167389453 791.4280343440001 Z"/></g></g><g><g><rect fill="white" stroke="none" x="630.5847247010938" y="807.7632376440001" width="103.06648721605468" height="19.602243960000003"/></g><text fill="black" stroke="none" font-family="sans-serif" font-size="10pt" font-style="normal" font-weight="normal" text-decoration="normal" x="632.8465220810938" y="821.3340219240001" text-anchor="start" dominant-baseline="alphabetic" xml:space="preserve">Calc PV of loans</text></g><g><path fill="none" stroke="black" paint-order="fill stroke markers" d=" M 612.7416564810937 827.3654816040001 L 673.0562532810937 827.3654816040001 L 673.0562532810937 846.9677255640001 L 615.2547646810938 846.9677255640001" stroke-miterlimit="10" stroke-width="1.2565541" stroke-dasharray=""/><g transform="translate(612.7416564810937,846.9677255640001) translate(-612.7416564810937,-846.9677255640001)"><path fill="black" stroke="none" paint-order="stroke fill markers" d=" M 625.3071974810938 840.6849550640002 L 612.7416564810937 846.9677255640001 L 625.3071974810938 853.2504960640001 Z"/></g></g><g><g><rect fill="white" stroke="none" x="341.4115871130879" y="869.5856993640002" width="160.50645913988282" height="19.602243960000003"/></g><g><rect fill="white" stroke="none" x="341.4115871130879" y="884.6643485640002" width="86.65785684496093" height="19.602243960000003"/></g><text fill="black" stroke="none" font-family="sans-serif" font-size="10pt" font-style="normal" font-weight="normal" text-decoration="normal" x="343.6733844930879" y="883.1564836440002" text-anchor="start" dominant-baseline="alphabetic" xml:space="preserve">Update coverage (&gt;150%)</text><text fill="black" stroke="none" font-family="sans-serif" font-size="10pt" font-style="normal" font-weight="normal" text-decoration="normal" x="343.6733844930879" y="898.2351328440002" text-anchor="start" dominant-baseline="alphabetic" xml:space="preserve">state 'IN USE'</text></g><g><path fill="none" stroke="black" paint-order="fill stroke markers" d=" M 612.7416564810937 904.2665925240002 L 233.10108508496486 904.2665925240002" stroke-miterlimit="10" stroke-width="1.2565541" stroke-dasharray=""/><g transform="translate(230.58797688496486,904.2665925240002) translate(-230.58797688496486,-904.2665925240002)"><path fill="black" stroke="none" paint-order="stroke fill markers" d=" M 243.15351788496486 897.9838220240002 L 230.58797688496486 904.2665925240002 L 243.15351788496486 910.5493630240002 Z"/></g></g><path fill="white" stroke="black" paint-order="fill stroke markers" d=" M 187.25689022176175 926.8845663240003 L 260.34827926816797 926.8845663240003 L 273.91906354816797 940.4553506040003 L 273.91906354816797 961.5654594840003 L 187.25689022176175 961.5654594840003 L 187.25689022176175 926.8845663240003 M 260.34827926816797 926.8845663240003 L 260.34827926816797 940.4553506040003 L 273.91906354816797 940.4553506040003" stroke-miterlimit="10" stroke-width="1.2565541" stroke-dasharray=""/><g><text fill="black" stroke="none" font-family="sans-serif" font-size="10pt" font-style="normal" font-weight="normal" text-decoration="normal" x="208.36699910176173" y="947.9946752040003" text-anchor="start" dominant-baseline="alphabetic" xml:space="preserve">IN USE</text></g><g><g><rect fill="white" stroke="none" x="457.74726217785155" y="984.1834332840003" width="88.975010775625" height="19.602243960000003"/></g><g><rect fill="white" stroke="none" x="457.74726217785155" y="999.2620824840003" width="88.87733926683593" height="19.602243960000003"/></g><text fill="black" stroke="none" font-family="sans-serif" font-size="10pt" font-style="normal" font-weight="normal" text-decoration="normal" x="460.0090595578516" y="997.7542175640003" text-anchor="start" dominant-baseline="alphabetic" xml:space="preserve">Emit message</text><text fill="black" stroke="none" font-family="sans-serif" font-size="10pt" font-style="normal" font-weight="normal" text-decoration="normal" x="460.0090595578516" y="1012.8328667640003" text-anchor="start" dominant-baseline="alphabetic" xml:space="preserve">'margin SAFE'</text></g><g><path fill="none" stroke="black" paint-order="fill stroke markers" d=" M 230.58797688496486 1018.8643264440003 L 771.3684500463633 1018.8643264440003" stroke-miterlimit="10" stroke-width="1.2565541" stroke-dasharray="6.03145968"/><g transform="translate(773.8815582463633,1018.8643264440003) translate(-773.8815582463633,-1018.8643264440003)"><path fill="black" stroke="none" paint-order="stroke fill markers" d=" M 761.3160172463632 1012.5815559440003 L 773.8815582463633 1018.8643264440003 L 761.3160172463632 1025.1470969440004 Z"/></g></g><path fill="white" stroke="black" paint-order="fill stroke markers" d=" M 60.69704639389454 1041.4823002440003 L 773.8815582463633 1041.4823002440003 L 787.4523425263633 1055.0530845240003 L 787.4523425263633 1076.1631934040004 L 60.69704639389454 1076.1631934040004 L 60.69704639389454 1041.4823002440003 M 773.8815582463633 1041.4823002440003 L 773.8815582463633 1055.0530845240003 L 787.4523425263633 1055.0530845240003" stroke-miterlimit="10" stroke-width="1.2565541" stroke-dasharray=""/><g><text fill="black" stroke="none" font-family="sans-serif" font-size="10pt" font-style="normal" font-weight="normal" text-decoration="normal" x="375.90323907682813" y="1062.5924091240004" text-anchor="start" dominant-baseline="alphabetic" xml:space="preserve">Liquidation case</text></g><g><g><rect fill="white" stroke="none" x="791.7246264663634" y="1098.7811672040004" width="51.927052401601564" height="19.602243960000003"/></g><text fill="black" stroke="none" font-family="sans-serif" font-size="10pt" font-style="normal" font-weight="normal" text-decoration="normal" x="793.9864238463633" y="1112.3519514840004" text-anchor="start" dominant-baseline="alphabetic" xml:space="preserve">No ETH</text></g><g><path fill="none" stroke="black" paint-order="fill stroke markers" d=" M 773.8815582463633 1118.3834111640006 L 834.1961550463633 1118.3834111640006 L 834.1961550463633 1137.9856551240005 L 776.3946664463633 1137.9856551240005" stroke-miterlimit="10" stroke-width="1.2565541" stroke-dasharray="6.03145968"/><g transform="translate(773.8815582463633,1137.9856551240005) translate(-773.8815582463633,-1137.9856551240005)"><path fill="black" stroke="none" paint-order="stroke fill markers" d=" M 786.4470992463633 1131.7028846240005 L 773.8815582463633 1137.9856551240005 L 786.4470992463633 1144.2684256240004 Z"/></g></g><g><g><rect fill="white" stroke="none" x="630.5847247010938" y="1160.6036289240005" width="89.22881021410156" height="19.602243960000003"/></g><text fill="black" stroke="none" font-family="sans-serif" font-size="10pt" font-style="normal" font-weight="normal" text-decoration="normal" x="632.8465220810938" y="1174.1744132040005" text-anchor="start" dominant-baseline="alphabetic" xml:space="preserve">Wait for action</text></g><g><path fill="none" stroke="black" paint-order="fill stroke markers" d=" M 612.7416564810937 1180.2058728840007 L 673.0562532810937 1180.2058728840007 L 673.0562532810937 1199.8081168440006 L 615.2547646810938 1199.8081168440006" stroke-miterlimit="10" stroke-width="1.2565541" stroke-dasharray="6.03145968"/><g transform="translate(612.7416564810937,1199.8081168440006) translate(-612.7416564810937,-1199.8081168440006)"><path fill="black" stroke="none" paint-order="stroke fill markers" d=" M 625.3071974810938 1193.5253463440006 L 612.7416564810937 1199.8081168440006 L 625.3071974810938 1206.0908873440005 Z"/></g></g><g><g><rect fill="white" stroke="none" x="436.24715536632806" y="1222.4260906440006" width="158.65143289476563" height="19.602243960000003"/></g><text fill="black" stroke="none" font-family="sans-serif" font-size="10pt" font-style="normal" font-weight="normal" text-decoration="normal" x="438.5089527463281" y="1235.9968749240006" text-anchor="start" dominant-baseline="alphabetic" xml:space="preserve">Call update all PV method</text></g><g><path fill="none" stroke="black" paint-order="fill stroke markers" d=" M 418.40408714632815 1242.0283346040005 L 610.2285482810937 1242.0283346040005" stroke-miterlimit="10" stroke-width="1.2565541" stroke-dasharray=""/><g transform="translate(612.7416564810937,1242.0283346040005) translate(-612.7416564810937,-1242.0283346040005)"><path fill="black" stroke="none" paint-order="stroke fill markers" d=" M 600.1761154810937 1235.7455641040006 L 612.7416564810937 1242.0283346040005 L 600.1761154810937 1248.3111051040005 Z"/></g></g><g><g><rect fill="white" stroke="none" x="293.20492129515037" y="1264.6463084040006" width="100.5996445646875" height="19.602243960000003"/></g><text fill="black" stroke="none" font-family="sans-serif" font-size="10pt" font-style="normal" font-weight="normal" text-decoration="normal" x="295.4667186751504" y="1278.2170926840006" text-anchor="start" dominant-baseline="alphabetic" xml:space="preserve">View yield curve</text></g><g><path fill="none" stroke="black" paint-order="fill stroke markers" d=" M 612.7416564810937 1284.2485523640005 L 76.78093887389454 1284.2485523640005" stroke-miterlimit="10" stroke-width="1.2565541" stroke-dasharray="6.03145968"/><g transform="translate(74.26783067389454,1284.2485523640005) translate(-74.26783067389454,-1284.2485523640005)"><path fill="black" stroke="none" paint-order="stroke fill markers" d=" M 86.83337167389453 1277.9657818640005 L 74.26783067389454 1284.2485523640005 L 86.83337167389453 1290.5313228640005 Z"/></g></g><g><g><rect fill="white" stroke="none" x="630.5847247010938" y="1306.8665261640006" width="103.06648721605468" height="19.602243960000003"/></g><text fill="black" stroke="none" font-family="sans-serif" font-size="10pt" font-style="normal" font-weight="normal" text-decoration="normal" x="632.8465220810938" y="1320.4373104440006" text-anchor="start" dominant-baseline="alphabetic" xml:space="preserve">Calc PV of loans</text></g><g><path fill="none" stroke="black" paint-order="fill stroke markers" d=" M 612.7416564810937 1326.4687701240007 L 673.0562532810937 1326.4687701240007 L 673.0562532810937 1346.0710140840006 L 615.2547646810938 1346.0710140840006" stroke-miterlimit="10" stroke-width="1.2565541" stroke-dasharray=""/><g transform="translate(612.7416564810937,1346.0710140840006) translate(-612.7416564810937,-1346.0710140840006)"><path fill="black" stroke="none" paint-order="stroke fill markers" d=" M 625.3071974810938 1339.7882435840006 L 612.7416564810937 1346.0710140840006 L 625.3071974810938 1352.3537845840006 Z"/></g></g><g><g><rect fill="white" stroke="none" x="341.4115871130879" y="1368.6889878840004" width="160.50645913988282" height="19.602243960000003"/></g><g><rect fill="white" stroke="none" x="341.4115871130879" y="1383.7676370840004" width="126.40700235277343" height="19.602243960000003"/></g><text fill="black" stroke="none" font-family="sans-serif" font-size="10pt" font-style="normal" font-weight="normal" text-decoration="normal" x="343.6733844930879" y="1382.2597721640004" text-anchor="start" dominant-baseline="alphabetic" xml:space="preserve">Update coverage (&lt;125%)</text><text fill="black" stroke="none" font-family="sans-serif" font-size="10pt" font-style="normal" font-weight="normal" text-decoration="normal" x="343.6733844930879" y="1397.3384213640004" text-anchor="start" dominant-baseline="alphabetic" xml:space="preserve">state 'LIQUIDATION'</text></g><g><path fill="none" stroke="black" paint-order="fill stroke markers" d=" M 612.7416564810937 1403.3698810440005 L 233.10108508496486 1403.3698810440005" stroke-miterlimit="10" stroke-width="1.2565541" stroke-dasharray=""/><g transform="translate(230.58797688496486,1403.3698810440005) translate(-230.58797688496486,-1403.3698810440005)"><path fill="black" stroke="none" paint-order="stroke fill markers" d=" M 243.15351788496486 1397.0871105440006 L 230.58797688496486 1403.3698810440005 L 243.15351788496486 1409.6526515440005 Z"/></g></g><path fill="white" stroke="black" paint-order="fill stroke markers" d=" M 167.3823174678555 1425.9878548440004 L 280.2228520220742 1425.9878548440004 L 293.7936363020742 1439.5586391240004 L 293.7936363020742 1460.6687480040005 L 167.3823174678555 1460.6687480040005 L 167.3823174678555 1425.9878548440004 M 280.2228520220742 1425.9878548440004 L 280.2228520220742 1439.5586391240004 L 293.7936363020742 1439.5586391240004" stroke-miterlimit="10" stroke-width="1.2565541" stroke-dasharray=""/><g><text fill="black" stroke="none" font-family="sans-serif" font-size="10pt" font-style="normal" font-weight="normal" text-decoration="normal" x="188.49242634785548" y="1447.0979637240005" text-anchor="start" dominant-baseline="alphabetic" xml:space="preserve">LIQUIDATION</text></g><g><g><rect fill="white" stroke="none" x="435.1813747266797" y="1483.2867218040003" width="88.975010775625" height="19.602243960000003"/></g><g><rect fill="white" stroke="none" x="435.1813747266797" y="1498.3653710040003" width="134.10678567796876" height="19.602243960000003"/></g><text fill="black" stroke="none" font-family="sans-serif" font-size="10pt" font-style="normal" font-weight="normal" text-decoration="normal" x="437.4431721066797" y="1496.8575060840003" text-anchor="start" dominant-baseline="alphabetic" xml:space="preserve">Emit message</text><text fill="black" stroke="none" font-family="sans-serif" font-size="10pt" font-style="normal" font-weight="normal" text-decoration="normal" x="437.4431721066797" y="1511.9361552840003" text-anchor="start" dominant-baseline="alphabetic" xml:space="preserve">'Collateral Liquidation'</text></g><g><path fill="none" stroke="black" paint-order="fill stroke markers" d=" M 230.58797688496486 1517.9676149640004 L 771.3684500463633 1517.9676149640004" stroke-miterlimit="10" stroke-width="1.2565541" stroke-dasharray="6.03145968"/><g transform="translate(773.8815582463633,1517.9676149640004) translate(-773.8815582463633,-1517.9676149640004)"><path fill="black" stroke="none" paint-order="stroke fill markers" d=" M 761.3160172463632 1511.6848444640004 L 773.8815582463633 1517.9676149640004 L 761.3160172463632 1524.2503854640004 Z"/></g></g></g></g></svg>